HIERARCHY
ROOT pelvis
{
  OFFSET 0 100 0
  CHANNELS 6 Xposition Yposition Zposition Zrotation Xrotation Yrotation
  JOINT pelvis_right_femur
  {
    OFFSET -10.78128 -3.44521 -0.5502486
    CHANNELS 3 Zrotation Xrotation Yrotation
    JOINT right_femur_tibia
    {
      OFFSET -0.8047443 -44.0398 -0.1307829
      CHANNELS 3 Zrotation Xrotation Yrotation
      JOINT right_tibia_foot
      {
        OFFSET 3.006224 -47.83518 -5
        CHANNELS 3 Zrotation Xrotation Yrotation
        End Site
        {
          OFFSET 0 -5 15
        }
      }
    }
  }
  JOINT pelvis_left_femur
  {
    OFFSET 10.78128 -3.44521 -0.5502486
    CHANNELS 3 Zrotation Xrotation Yrotation
    JOINT left_femur_tibia
    {
      OFFSET 0.8047443 -44.0398 -0.1307829
      CHANNELS 3 Zrotation Xrotation Yrotation
      JOINT left_tibia_foot
      {
        OFFSET -4.370144 -48.10324 -4.275266
        CHANNELS 3 Zrotation Xrotation Yrotation
        End Site
        {
          OFFSET 0 -5 15
        }
      }
    }
  }
  JOINT pelvis_spine1
  {
    OFFSET 0 6.468898 -3.129235
    CHANNELS 3 Zrotation Xrotation Yrotation
    JOINT spine1
    {
      OFFSET 0 23.15396 4.99043
      CHANNELS 3 Zrotation Xrotation Yrotation
      JOINT spine2
      {
        OFFSET 0 20.79997 -5.064912
        CHANNELS 3 Zrotation Xrotation Yrotation
        JOINT neck
        {
          OFFSET 0 14.38658 9.616178
          CHANNELS 3 Zrotation Xrotation Yrotation
          End Site
          {
            OFFSET 0 20 0
          }
        }
      }
      JOINT right_manubrium
      {
        OFFSET -5.722621 16.35077 3.967754
        CHANNELS 3 Zrotation Xrotation Yrotation
        JOINT right_clavicle
        {
          OFFSET -13.16364 1.694482 -4.693211
          CHANNELS 3 Zrotation Xrotation Yrotation
          JOINT right_humerus
          {
            OFFSET -28.5034 -0.3100689 -2.792744
            CHANNELS 3 Zrotation Xrotation Yrotation
            JOINT right_radius
            {
              OFFSET -25.15693 0.02248979 -1.271978
              CHANNELS 3 Zrotation Xrotation Yrotation
              End Site
              {
                OFFSET -15 0 0
              }
            }
          }
        }
      }
      JOINT left_manubrium
      {
        OFFSET 5.722621 16.35077 3.967754
        CHANNELS 3 Zrotation Xrotation Yrotation
        JOINT left_clavicle
        {
          OFFSET 13.16364 1.694482 -4.693211
          CHANNELS 3 Zrotation Xrotation Yrotation
          JOINT left_humerus
          {
            OFFSET 29.39168 -1.063119 -2.237045
            CHANNELS 3 Zrotation Xrotation Yrotation
            JOINT left_radius
            {
              OFFSET 24.59957 -0.9528479 0.9047498
              CHANNELS 3 Zrotation Xrotation Yrotation
              End Site
              {
                OFFSET 15 -0 -0
              }
            }
          }
        }
      }
    }
  }
}
MOTION
Frames: 17
Frame Time: 0.0416666666667
0 103.5113 0 1.115796 -0.6378105 0.01119189 3.27716 -17.4411 8.511712 -0 35.78892 -0 -4.702825 -15.96471 -3.461471 -6.995264 11.70501 -23.16477 -0 5.02613 -0 6.252208 -18.15915 25.06046 -3.458833 -3.726054 3.413921 3.776471 6.866765 -9.338675 0.4535618 19.56485 8.577345 4.205927 -26.31852 9.477449 6.768384 -17.85763 12.79039 82.98634 32.01099 -17.9444 -0 0 20.40508 -10.92322 11.12406 5.783046 9.388554 -20.34752 5.280899 -95.38036 19.06948 22.03672 0 0 -6.396067 10.82135 20.01914 -2.741244
0.2919505 103.3215 1.565831 0.4437485 -0.1276563 -0.02195127 3.98071 -19.98589 8.988 -0 35.89985 -0 -4.969645 -14.52371 -3.66998 -6.398976 11.18693 -22.8021 -0 5.025869 -0 4.112251 -19.66553 23.88668 -3.379004 -3.569422 3.300191 3.849282 7.018488 -9.474827 0.4673176 19.39552 8.814802 4.3845 -26.67493 9.649153 6.675682 -17.94454 12.82604 83.36569 32.25018 -18.19005 -0 0 19.74882 -10.79859 10.92458 5.778324 9.478799 -20.74778 5.016548 -94.63632 18.90917 20.88527 0 0 -8.080803 11.26626 19.52868 -3.055766
0.625398 102.9618 3.40661 -0.07224964 1.091738 -0.02369316 4.978642 -24.447 8.816299 -0 32.32446 -0 -5.214677 -12.65889 -3.378997 -6.111883 11.04798 -21.65701 -0 4.828046 -0 4.960147 -20.6118 23.18931 -3.079603 -3.252803 3.461515 3.612863 7.819771 -9.434419 0.4906163 19.33612 8.882452 4.587633 -26.43983 9.472792 6.108389 -17.92138 12.7705 84.7613 32.39687 -19.14632 -0 0 17.92019 -12.11303 11.14982 6.40686 9.29253 -21.6164 3.778436 -93.29066 19.03529 19.35875 0 0 -11.22187 10.57564 17.4485 -1.858969
0.9829156 102.4153 5.570549 -0.399561 2.183454 0.03888324 5.724068 -28.21773 8.434488 -0 28.30937 -0 -5.39531 -11.06623 -3.031287 -5.984034 11.20433 -20.58306 -0 4.794743 -0 6.010282 -21.33434 22.58385 -2.915678 -3.055306 3.55425 3.48593 8.267568 -9.385775 0.5206112 19.34089 8.883034 4.666337 -26.29644 9.38954 5.858589 -17.88243 12.70794 85.46578 32.5618 -19.65457 -0 0 16.85196 -12.66269 11.2305 6.673194 9.146771 -22.04384 3.042213 -92.53413 19.18259 18.49406 0 0 -12.97623 10.35697 16.29906 -1.295689
1.349259 101.7001 8.143587 -0.6525889 3.256344 0.2009107 6.383644 -31.67898 7.92924 -0 23.8918 -0 -5.593452 -9.404092 -2.632969 -5.94051 11.62308 -19.52862 -0 5.154684 -0 7.026521 -21.9738 21.94327 -2.766439 -2.872421 3.653724 3.352342 8.676959 -9.320404 0.5428223 19.37033 8.835 4.703554 -26.07044 9.260778 5.6445 -17.81385 12.63892 86.07919 32.65863 -20.11372 -0 0 15.90975 -13.22831 11.35848 6.957465 8.974035 -22.37418 2.353371 -91.88321 19.34381 17.81707 0 0 -14.42693 10.05411 15.24892 -0.6595888
1.698857 100.8523 11.22246 -0.879589 4.104208 0.5051365 6.894611 -34.4093 7.190027 -0 19.64554 -0 -5.976989 -7.523352 -2.197109 -5.914543 12.34661 -18.49739 -0 6.222646 -0 7.499437 -22.47614 21.08301 -2.646146 -2.720332 3.753327 3.230481 9.011279 -9.241439 0.5628497 19.42533 8.750073 4.700894 -25.8262 9.12501 5.50104 -17.74144 12.56988 86.52162 32.72447 -20.45141 -0 0 15.1838 -13.67562 11.47921 7.186758 8.795274 -22.57926 1.782284 -91.41476 19.52027 17.38777 0 0 -15.43998 9.775055 14.42884 -0.08435557
2.0042 99.95631 14.90344 -1.158398 4.629408 0.9935341 7.312422 -36.10179 6.283706 -0 16.20704 -0 -6.621325 -5.458417 -1.757705 -5.811982 13.33933 -17.51744 -0 8.309716 -0 6.956908 -22.69561 19.79804 -2.54262 -2.586195 3.853761 3.111446 9.30032 -9.15673 0.5774272 19.49105 8.644771 4.677307 -25.55872 8.974077 5.38868 -17.66774 12.50547 86.86834 32.74285 -20.71444 -0 0 14.60137 -14.10201 11.60845 7.409166 8.614401 -22.71106 1.286634 -91.05375 19.69325 17.11272 0 0 -16.17836 9.463524 13.73908 0.4939195
2.242877 99.14788 19.27004 -1.555222 4.751129 1.676802 7.7105 -36.42135 5.299251 -0 14.15244 -0 -7.516412 -3.399481 -1.350822 -5.518544 14.47568 -16.54533 -0 11.74864 -0 5.005969 -22.31015 17.84667 -2.453952 -2.468789 3.957916 2.992984 9.550751 -9.065778 0.5878281 19.56535 8.525402 4.639282 -25.27712 8.813352 5.299049 -17.59999 12.44668 87.1305 32.71992 -20.90346 -0 0 14.15158 -14.51591 11.7393 7.62534 8.435082 -22.78282 0.8605703 -90.79142 19.86304 16.97432 0 0 -16.67425 9.123318 13.16252 1.071813
2.41346 98.61228 24.35865 -2.113173 4.522417 2.49334 8.224154 -35.24016 4.4851 -0 13.79415 -0 -8.470724 -1.754677 -1.061193 -4.931216 15.41656 -15.48074 -0 16.83472 -0 1.648572 -20.83635 15.15436 -2.377664 -2.365455 4.067606 2.871729 9.770008 -8.969135 0.5939915 19.6441 8.398435 4.593302 -24.98347 8.644116 5.219436 -17.5422 12.39432 87.32606 32.65301 -21.02592 -0 0 13.8186 -14.94313 11.87203 7.846421 8.260369 -22.80939 0.4942958 -90.60876 20.02559 16.94564 0 0 -16.9736 8.744991 12.66821 1.65952
2.549172 98.5429 30.11617 -2.794574 4.104943 3.272296 8.918392 -32.7051 4.145454 -0 14.86036 -0 -9.131887 -1.0266 -1.028208 -4.046849 15.56718 -14.1699 -0 23.80213 -0 -2.370524 -17.8178 12.0815 -2.312498 -2.274977 4.186158 2.744485 9.962618 -8.86468 0.5965669 19.72593 8.266965 4.542545 -24.67947 8.468339 5.141712 -17.49909 12.34799 87.46261 32.54263 -21.08133 -0 0 13.59669 -15.39705 12.00453 8.077748 8.09135 -22.79751 0.1817657 -90.49782 20.18118 17.01582 0 0 -17.10013 8.325918 12.23554 2.260922
2.713796 99.06562 36.35916 -3.426724 3.625761 3.75166 9.643445 -29.10974 4.457553 -0 16.46013 -0 -9.212793 -1.593482 -1.369442 -3.0486 14.18225 -12.57278 -0 32.69686 -0 -5.670144 -13.33729 9.477663 -2.2576 -2.196443 4.317044 2.608084 10.13148 -8.749635 0.5960861 19.80959 8.133172 4.488897 -24.36578 8.287669 5.057933 -17.47559 12.30688 87.54516 32.38781 -21.067 -0 0 13.48429 -15.89023 12.13495 8.325256 7.928448 -22.75064 -0.08177719 -90.45245 20.32987 17.17841 0 0 -17.07246 7.862932 11.84465 2.880323
2.963197 100.1628 42.77423 -3.691347 2.960452 3.690318 9.96845 -24.58036 5.155481 -0 17.44909 -0 -8.862222 -3.400189 -1.976777 -2.297325 10.70716 -10.94789 -0 43.01113 -0 -7.114649 -8.441724 8.209193 -2.212482 -2.129352 4.464356 2.459386 10.27794 -8.620026 0.5932213 19.89445 7.998026 4.432735 -24.04296 8.103979 4.960741 -17.47753 12.26967 87.57532 32.18788 -20.97682 -0 0 13.48448 -16.43166 12.26054 8.594037 7.771072 -22.66844 -0.2998347 -90.46998 20.47254 17.43346 0 0 -16.90259 7.354274 11.4776 3.520881
3.29054 101.6541 49.00624 -3.263121 1.7848 3.062608 9.393525 -19.0209 5.484426 -0 16.98028 -0 -8.619593 -5.760879 -2.440323 -2.152463 5.207169 -9.733073 -0 53.15112 -0 -6.757286 -4.763469 8.569297 -2.176902 -2.073518 4.632476 2.295408 10.40187 -8.471081 0.5886916 19.97991 7.861925 4.373352 -23.71188 7.919582 4.842511 -17.51174 12.23466 87.55273 31.9419 -20.80231 -0 0 13.60407 -17.02807 12.37763 8.889027 7.618042 -22.54764 -0.4748709 -90.54975 20.61007 17.78537 0 0 -16.5994 6.79906 11.11691 4.184902
3.61607 103.2432 54.8267 -2.094337 -0.01473152 2.167733 7.884911 -12.50889 4.930702 -0 14.94942 -0 -8.640909 -7.627839 -2.408197 -2.601027 -1.505159 -9.019961 -0 60.51847 -0 -5.72861 -3.344302 10.16545 -2.150781 -2.029037 4.825936 2.113477 10.50166 -8.297334 0.5832977 20.06535 7.724894 4.309058 -23.37426 7.73752 4.695252 -17.58613 12.19974 87.47566 31.64904 -20.53307 -0 0 13.85291 -17.68322 12.4814 9.214692 7.467668 -22.38233 -0.6085351 -90.6928 20.74324 18.24222 0 0 -16.17004 6.197969 10.74529 4.873242
3.85725 104.6001 60.24409 -0.6055171 -2.077317 1.401785 6.156063 -5.699362 3.983517 -0 12.19765 -0 -8.341075 -8.481888 -2.039638 -2.966964 -8.314143 -8.288781 -0 62.70498 -0 -5.041219 -3.778569 12.28747 -2.134091 -1.996225 5.04897 1.911564 10.57435 -8.093075 0.5779088 20.14982 7.58693 4.237405 -23.03312 7.561798 4.510634 -17.70934 12.16239 87.34205 31.3088 -20.15812 -0 0 14.24249 -18.39729 12.56586 9.574679 7.318023 -22.16464 -0.7019049 -90.90107 20.87233 18.81411 0 0 -15.62212 5.553876 10.34562 5.584691
4.016259 105.4566 65.42544 0.5114382 -3.820719 0.8812745 5.070993 0.3751293 3.454108 -0 9.948375 -0 -7.395779 -8.968413 -1.760146 -2.351763 -14.40403 -6.956836 -0 58.80726 -0 -4.663652 -4.713119 14.34677 -2.126669 -1.975498 5.304783 1.68877 10.61593 -7.853107 0.5734469 20.2319 7.448302 4.155473 -22.69325 7.397491 4.280547 -17.88997 12.1198 87.15091 30.92136 -19.6682 -0 0 14.78366 -19.16574 12.62414 9.971034 7.167241 -21.88583 -0.7559207 -91.17641 20.99684 19.51078 0 0 -14.966 4.872735 9.901622 6.315231
4.181602 105.6759 70.53809 0.8214451 -4.796349 0.4464047 4.87251 5.094899 3.382162 -0 8.743557 -0 -6.368495 -10.26847 -1.585441 -0.5736334 -19.43217 -5.080114 -0 49.8082 -0 -4.037907 -5.134349 15.9783 -2.127933 -1.967127 5.594413 1.446014 10.62217 -7.574037 0.5708481 20.30948 7.309874 4.060374 -22.36141 7.250595 3.998249 -18.13495 12.06901 86.90433 30.48799 -19.05935 -0 0 15.48268 -19.97798 12.64925 10.40304 7.013966 -21.5383 -0.7720694 -91.51892 21.11514 20.3377 0 0 -14.21748 4.164332 9.399557 7.057494
